<?xml version="1.0" encoding="iso-8859-1"?>
<!-- Generator: Adobe Illustrator 19.0.0, SVG Export Plug-In . SVG Version: 6.00 Build 0)  -->
<svg version="1.1" id="Capa_1" xmlns="http://www.w3.org/2000/svg" xmlns:xlink="http://www.w3.org/1999/xlink" x="0px" y="0px"
	 viewBox="0 0 512 512" style="enable-background:new 0 0 512 512;" xml:space="preserve">
<g>
	<g>
		<path d="M480,320H32c-17.673,0-32,14.327-32,32v128c0,17.673,14.327,32,32,32h448c17.673,0,32-14.327,32-32V352
			C512,334.327,497.673,320,480,320z M490.667,480c0,5.891-4.776,10.667-10.667,10.667H32c-5.891,0-10.667-4.776-10.667-10.667V352
			c0-5.891,4.776-10.667,10.667-10.667h448c5.891,0,10.667,4.776,10.667,10.667V480z"/>
	</g>
</g>
<g>
	<g>
		<path d="M394.667,245.333h-96c-17.673,0-32-14.327-32-32V192h-21.333v21.333c0.035,29.441,23.893,53.298,53.333,53.333h96
			c17.673,0,32,14.327,32,32v32H448v-32C447.965,269.226,424.107,245.369,394.667,245.333z"/>
	</g>
</g>
<g>
	<g>
		<rect x="53.333" y="362.667" width="64" height="21.333"/>
	</g>
</g>
<g>
	<g>
		<rect x="53.333" y="405.333" width="64" height="21.333"/>
	</g>
</g>
<g>
	<g>
		<rect x="53.333" y="448" width="64" height="21.333"/>
	</g>
</g>
<g>
	<g>
		<rect x="138.667" y="362.667" width="64" height="21.333"/>
	</g>
</g>
<g>
	<g>
		<rect x="138.667" y="405.333" width="64" height="21.333"/>
	</g>
</g>
<g>
	<g>
		<rect x="138.667" y="448" width="64" height="21.333"/>
	</g>
</g>
<g>
	<g>
		<rect x="224" y="362.667" width="64" height="21.333"/>
	</g>
</g>
<g>
	<g>
		<rect x="224" y="405.333" width="64" height="21.333"/>
	</g>
</g>
<g>
	<g>
		<rect x="224" y="448" width="64" height="21.333"/>
	</g>
</g>
<g>
	<g>
		<rect x="309.333" y="362.667" width="64" height="21.333"/>
	</g>
</g>
<g>
	<g>
		<rect x="309.333" y="405.333" width="64" height="21.333"/>
	</g>
</g>
<g>
	<g>
		<rect x="309.333" y="448" width="64" height="21.333"/>
	</g>
</g>
<g>
	<g>
		<rect x="394.667" y="362.667" width="64" height="21.333"/>
	</g>
</g>
<g>
	<g>
		<rect x="394.667" y="405.333" width="64" height="21.333"/>
	</g>
</g>
<g>
	<g>
		<rect x="394.667" y="448" width="64" height="21.333"/>
	</g>
</g>
<g>
	<g>
		<path d="M210.208,71.541l-15.083-15.083l-53.333,53.333c-4.164,4.165-4.164,10.917,0,15.083l53.333,53.333l15.083-15.083
			l-45.792-45.792L210.208,71.541z"/>
	</g>
</g>
<g>
	<g>
		<path d="M370.208,109.792l-53.333-53.333l-15.083,15.083l45.792,45.792l-45.792,45.792l15.083,15.083l53.333-53.333
			C374.372,120.709,374.372,113.957,370.208,109.792z"/>
	</g>
</g>
<g>
	<g>
		
			<rect x="198.562" y="106.614" transform="matrix(0.3711 -0.9286 0.9286 0.3711 52.1022 311.4877)" width="114.88" height="21.333"/>
	</g>
</g>
<g>
	<g>
		<path d="M416,0H96C78.327,0,64,14.327,64,32v202.667c0,17.673,14.327,32,32,32h138.667v-21.333H96
			c-5.891,0-10.667-4.776-10.667-10.667V32c0-5.891,4.776-10.667,10.667-10.667h320c5.891,0,10.667,4.776,10.667,10.667v192H448V32
			C448,14.327,433.673,0,416,0z"/>
	</g>
</g>
<g>
	<g>
		<rect x="181.333" y="256" width="21.333" height="42.667"/>
	</g>
</g>
<g>
</g>
<g>
</g>
<g>
</g>
<g>
</g>
<g>
</g>
<g>
</g>
<g>
</g>
<g>
</g>
<g>
</g>
<g>
</g>
<g>
</g>
<g>
</g>
<g>
</g>
<g>
</g>
<g>
</g>
</svg>
